<svg width="90" height="90" viewBox="0 0 90 90" fill="none" xmlns="http://www.w3.org/2000/svg">
  <path d="M45 0C36.0998 0 27.3995 2.6392 19.9993 7.58387C12.5991 12.5285 6.83135 19.5566 3.42541 27.7792C0.0194674 36.0019 -0.871683 45.0499 0.864652 53.7791C2.60099 62.5082 6.88682 70.5264 13.1802 76.8198C19.4735 83.1132 27.4918 87.399 36.2209 89.1353C44.9501 90.8717 53.9981 89.9805 62.2207 86.5746C70.4434 83.1686 77.4715 77.4009 82.4161 70.0007C87.3608 62.6005 90 53.9002 90 45C90 33.0653 85.2589 21.6193 76.8198 13.1802C68.3807 4.74106 56.9347 0 45 0ZM55.11 82.66C58.45 77.34 61.04 69.45 62.41 60.14H80.94C78.6239 65.6065 75.0948 70.4747 70.6199 74.3763C66.1449 78.2778 60.8412 81.1105 55.11 82.66ZM27.59 60.14C28.96 69.45 31.59 77.34 34.89 82.66C29.1588 81.1105 23.8551 78.2778 19.3801 74.3763C14.9051 70.4747 11.3761 65.6065 9.05999 60.14H27.59ZM34.94 7.34C31.94 12.14 29.52 19.03 28.08 27.17H10.33C12.8237 22.3414 16.2951 18.0847 20.5234 14.6707C24.7517 11.2568 29.6443 8.76023 34.89 7.34H34.94ZM79.67 27.17H62C60.56 19.03 58.15 12.17 55.14 7.34C60.3802 8.76395 65.2669 11.2622 69.4899 14.676C73.7128 18.0898 77.1796 22.3445 79.67 27.17ZM45 84C43.25 84 40.15 81 37.48 74.54C35.6651 69.9017 34.3901 65.0699 33.68 60.14H56.32C55.6099 65.0699 54.3349 69.9017 52.52 74.54C49.85 81 46.75 84 45 84ZM45 6C46.75 6 49.85 9 52.52 15.46C54.0183 19.2431 55.1372 23.1657 55.86 27.17H34.14C34.8628 23.1657 35.9816 19.2431 37.48 15.46C40.15 9 43.25 6 45 6ZM32.52 45C32.5174 41.0462 32.7511 37.0959 33.22 33.17H56.78C57.2488 37.0959 57.4826 41.0462 57.48 45C57.48 48.09 57.33 51.16 57.06 54.14H32.94C32.67 51.16 32.52 48.09 32.52 45ZM26.9 54.14H7.08999C5.40931 47.2037 5.66877 39.9387 7.83999 33.14H27.17C26.7339 37.0782 26.5169 41.0377 26.52 45C26.52 48.13 26.65 51.19 26.9 54.14ZM62.83 33.14H82.16C84.3312 39.9387 84.5907 47.2037 82.91 54.14H63.1C63.35 51.14 63.48 48.14 63.48 45C63.482 41.0477 63.265 37.0983 62.83 33.17V33.14Z" fill="#c3c2d4"/>
</svg>