<svg width="366" height="167" viewBox="0 0 366 167" fill="none" xmlns="http://www.w3.org/2000/svg">
	<path d="M336.17 0L258 111.991H282L360.576 0H336.17Z" fill="white"/>
	<path d="M284.5 0L307.5 33L295.5 51L260 0H284.5Z" fill="url(#logo_linear0)"/>
	<path d="M338.5 112L313 75.5L325 58L362.5 112H338.5Z" fill="url(#logo_linear1)"/>
	<path fill-rule="evenodd" clip-rule="evenodd" d="M230 0H251V111.991H230V107.808C223.935 111.118 216.972 113 209.567 113C186.058 113 167 94.0281 167 70.625C167 47.2219 186.058 28.25 209.567 28.25C216.972 28.25 223.935 30.1321 230 33.4419V0ZM209.343 94.4018C222.658 94.4018 233.452 83.6566 233.452 70.4018C233.452 57.147 222.658 46.4018 209.343 46.4018C196.028 46.4018 185.234 57.147 185.234 70.4018C185.234 83.6566 196.028 94.4018 209.343 94.4018Z" fill="white"/>
	<path d="M169.089 0L91 111.991H115.481L193.495 0H169.089Z" fill="white"/>
	<path d="M115.5 0L140 34L126.5 53L90 0H115.5Z" fill="url(#logo_linear2)"/>
	<path fill-rule="evenodd" clip-rule="evenodd" d="M63 0H84V111.991H63V107.808C56.9349 111.118 49.9719 113 42.5673 113C19.058 113 0 94.0281 0 70.625C0 47.2219 19.058 28.25 42.5673 28.25C49.9719 28.25 56.9349 30.1321 63 33.4419V0ZM42.3431 94.4018C55.6581 94.4018 66.452 83.6566 66.452 70.4018C66.452 57.147 55.6581 46.4018 42.3431 46.4018C29.0281 46.4018 18.2342 57.147 18.2342 70.4018C18.2342 83.6566 29.0281 94.4018 42.3431 94.4018Z" fill="white"/>
	<path d="M2.788 160C2.56133 160 2.448 159.887 2.448 159.66V136.54C2.448 136.313 2.56133 136.2 2.788 136.2H17.884C18.1107 136.2 18.224 136.313 18.224 136.54V139.804C18.224 140.031 18.1107 140.144 17.884 140.144H6.732V146.026H16.796C17.0227 146.026 17.136 146.139 17.136 146.366V149.63C17.136 149.857 17.0227 149.97 16.796 149.97H6.732V159.66C6.732 159.887 6.61866 160 6.392 160H2.788Z" fill="#807E98"/>
	<path d="M49.015 160.34C46.975 160.34 45.0596 159.887 43.269 158.98C41.4783 158.051 40.0276 156.668 38.917 154.832C37.8063 152.973 37.251 150.729 37.251 148.1C37.251 145.471 37.8063 143.238 38.917 141.402C40.0276 139.543 41.4783 138.161 43.269 137.254C45.0596 136.325 46.975 135.86 49.015 135.86C51.055 135.86 52.9703 136.325 54.761 137.254C56.5516 138.161 58.0023 139.543 59.113 141.402C60.2236 143.238 60.779 145.471 60.779 148.1C60.779 150.729 60.2236 152.973 59.113 154.832C58.0023 156.668 56.5516 158.051 54.761 158.98C52.9703 159.887 51.055 160.34 49.015 160.34ZM49.015 156.396C50.3296 156.396 51.5423 156.09 52.653 155.478C53.7636 154.843 54.659 153.903 55.339 152.656C56.019 151.409 56.359 149.891 56.359 148.1C56.359 146.309 56.019 144.791 55.339 143.544C54.659 142.297 53.7636 141.368 52.653 140.756C51.5423 140.121 50.3296 139.804 49.015 139.804C47.7003 139.804 46.4876 140.121 45.377 140.756C44.2663 141.368 43.371 142.297 42.691 143.544C42.011 144.791 41.671 146.309 41.671 148.1C41.671 149.891 42.011 151.409 42.691 152.656C43.371 153.903 44.2663 154.843 45.377 155.478C46.4876 156.09 47.7003 156.396 49.015 156.396Z" fill="#807E98"/>
	<path d="M90.4126 160.34C88.622 160.34 87.0353 159.966 85.6526 159.218C84.2926 158.447 83.2386 157.348 82.4906 155.92C81.7426 154.492 81.3686 152.792 81.3686 150.82V136.54C81.3686 136.313 81.482 136.2 81.7086 136.2H85.3126C85.5393 136.2 85.6526 136.313 85.6526 136.54V150.786C85.6526 152.667 86.072 154.073 86.9106 155.002C87.7493 155.931 88.9166 156.396 90.4126 156.396C91.9086 156.396 93.076 155.931 93.9146 155.002C94.7533 154.073 95.1726 152.667 95.1726 150.786V136.54C95.1726 136.313 95.286 136.2 95.5126 136.2H99.1166C99.3433 136.2 99.4566 136.313 99.4566 136.54V150.82C99.4566 152.792 99.0826 154.492 98.3346 155.92C97.5866 157.348 96.5213 158.447 95.1386 159.218C93.7786 159.966 92.2033 160.34 90.4126 160.34Z" fill="#807E98"/>
	<path d="M121.556 160C121.329 160 121.216 159.887 121.216 159.66V136.54C121.216 136.313 121.329 136.2 121.556 136.2H125.058C125.307 136.2 125.488 136.291 125.602 136.472L135.972 152.758V136.54C135.972 136.313 136.085 136.2 136.312 136.2H139.916C140.142 136.2 140.256 136.313 140.256 136.54V159.66C140.256 159.887 140.142 160 139.916 160H136.414C136.164 160 135.983 159.909 135.87 159.728L125.5 143.442V159.66C125.5 159.887 125.386 160 125.16 160H121.556Z" fill="#807E98"/>
	<path d="M162.495 160C162.268 160 162.155 159.887 162.155 159.66V136.54C162.155 136.313 162.268 136.2 162.495 136.2H169.737C171.822 136.2 173.715 136.642 175.415 137.526C177.115 138.41 178.464 139.747 179.461 141.538C180.458 143.329 180.957 145.516 180.957 148.1C180.957 150.684 180.458 152.871 179.461 154.662C178.464 156.453 177.115 157.79 175.415 158.674C173.715 159.558 171.822 160 169.737 160H162.495ZM169.533 156.056C171.664 156.056 173.364 155.387 174.633 154.05C175.902 152.713 176.537 150.729 176.537 148.1C176.537 145.471 175.902 143.487 174.633 142.15C173.364 140.813 171.664 140.144 169.533 140.144H166.439V156.056H169.533Z" fill="#807E98"/>
	<path d="M199.197 160C198.834 160 198.721 159.819 198.857 159.456L207.221 136.54C207.311 136.313 207.481 136.2 207.731 136.2H211.403C211.652 136.2 211.822 136.313 211.913 136.54L220.277 159.456C220.322 159.592 220.345 159.671 220.345 159.694C220.345 159.898 220.209 160 219.937 160H216.231C216.095 160 216.004 159.977 215.959 159.932C215.913 159.887 215.868 159.796 215.823 159.66L213.783 153.71H205.351L203.311 159.66C203.265 159.796 203.22 159.887 203.175 159.932C203.129 159.977 203.039 160 202.903 160H199.197ZM212.423 149.766L209.567 141.47L206.711 149.766H212.423Z" fill="#807E98"/>
	<path d="M243.322 160C243.095 160 242.982 159.887 242.982 159.66V140.144H236.318C236.091 140.144 235.978 140.031 235.978 139.804V136.54C235.978 136.313 236.091 136.2 236.318 136.2H253.93C254.156 136.2 254.27 136.313 254.27 136.54V139.804C254.27 140.031 254.156 140.144 253.93 140.144H247.266V159.66C247.266 159.887 247.152 160 246.926 160H243.322Z" fill="#807E98"/>
	<path d="M274.156 160C273.93 160 273.816 159.887 273.816 159.66V136.54C273.816 136.313 273.93 136.2 274.156 136.2H277.76C277.987 136.2 278.1 136.313 278.1 136.54V159.66C278.1 159.887 277.987 160 277.76 160H274.156Z" fill="#807E98"/>
	<path d="M310.556 160.34C308.516 160.34 306.601 159.887 304.81 158.98C303.019 158.051 301.569 156.668 300.458 154.832C299.347 152.973 298.792 150.729 298.792 148.1C298.792 145.471 299.347 143.238 300.458 141.402C301.569 139.543 303.019 138.161 304.81 137.254C306.601 136.325 308.516 135.86 310.556 135.86C312.596 135.86 314.511 136.325 316.302 137.254C318.093 138.161 319.543 139.543 320.654 141.402C321.765 143.238 322.32 145.471 322.32 148.1C322.32 150.729 321.765 152.973 320.654 154.832C319.543 156.668 318.093 158.051 316.302 158.98C314.511 159.887 312.596 160.34 310.556 160.34ZM310.556 156.396C311.871 156.396 313.083 156.09 314.194 155.478C315.305 154.843 316.2 153.903 316.88 152.656C317.56 151.409 317.9 149.891 317.9 148.1C317.9 146.309 317.56 144.791 316.88 143.544C316.2 142.297 315.305 141.368 314.194 140.756C313.083 140.121 311.871 139.804 310.556 139.804C309.241 139.804 308.029 140.121 306.918 140.756C305.807 141.368 304.912 142.297 304.232 143.544C303.552 144.791 303.212 146.309 303.212 148.1C303.212 149.891 303.552 151.409 304.232 152.656C304.912 153.903 305.807 154.843 306.918 155.478C308.029 156.09 309.241 156.396 310.556 156.396Z" fill="#807E98"/>
	<path d="M343.386 160C343.159 160 343.046 159.887 343.046 159.66V136.54C343.046 136.313 343.159 136.2 343.386 136.2H346.888C347.137 136.2 347.318 136.291 347.432 136.472L357.802 152.758V136.54C357.802 136.313 357.915 136.2 358.142 136.2H361.746C361.972 136.2 362.086 136.313 362.086 136.54V159.66C362.086 159.887 361.972 160 361.746 160H358.244C357.994 160 357.813 159.909 357.7 159.728L347.33 143.442V159.66C347.33 159.887 347.216 160 346.99 160H343.386Z" fill="#807E98"/>
	<defs>
		<linearGradient id="logo_linear0" x1="279" y1="7" x2="311.925" y2="46.7483" gradientUnits="userSpaceOnUse">
			<stop stop-color="white"/>
			<stop offset="1" stop-color="white" stop-opacity="0.55"/>
		</linearGradient>
		<linearGradient id="logo_linear1" x1="344" y1="103.5" x2="303.547" y2="48.965" gradientUnits="userSpaceOnUse">
			<stop stop-color="#6966FF"/>
			<stop offset="1" stop-color="#6966FF" stop-opacity="0.36"/>
		</linearGradient>
		<linearGradient id="logo_linear2" x1="110" y1="7.27451" x2="144.132" y2="49.0118" gradientUnits="userSpaceOnUse">
			<stop stop-color="white"/>
			<stop offset="1" stop-color="white" stop-opacity="0.55"/>
		</linearGradient>
	</defs>
</svg>
