<svg width="8" height="12" viewBox="0 0 8 12" fill="none" xmlns="http://www.w3.org/2000/svg">
  <path d="M4.0814 12C4.73256 12 5.13953 11.4965 5.13953 10.9091C5.13953 10.3217 4.73256 9.81818 4.0814 9.81818C3.43023 9.81818 3.02326 10.3217 3.02326 10.9091C3.02326 11.4965 3.43023 12 4.0814 12ZM3.18605 7.63636C3.18605 8.05347 3.52418 8.39161 3.94129 8.39161H4.05871C4.47582 8.39161 4.81395 8.05347 4.81395 7.63636V7.63636C4.81395 5.70629 7.5 5.79021 7.5 3.1049C7.5 1.17483 6.03488 0 4 0C2.41686 0 1.18297 0.840147 0.692119 2.3682C0.541305 2.83769 0.93289 3.27273 1.42601 3.27273V3.27273C1.83057 3.27273 2.15897 2.96974 2.32679 2.60163C2.62467 1.94827 3.19438 1.51049 4 1.51049C5.13954 1.51049 5.7907 2.18182 5.7907 3.1049C5.7907 5.11888 3.18605 4.78322 3.18605 7.63636V7.63636Z" fill="#807e98"/>
</svg>
