<svg width="14" height="14" viewBox="0 0 14 14" fill="none" xmlns="http://www.w3.org/2000/svg">
  <path d="M11.5571 13.5556C11.3933 13.7194 11.1777 13.802 10.9635 13.802C10.7479 13.802 10.5323 13.7194 10.3685 13.5556C10.0409 13.2266 10.0409 12.696 10.3685 12.367C12.2207 10.5148 12.2207 7.502 10.3685 5.6498C8.51766 3.799 5.50346 3.799 3.65266 5.6498L3.34886 5.9536H5.35366C5.81706 5.9536 6.19366 6.3302 6.19366 6.7936C6.19366 7.2584 5.81706 7.6336 5.35366 7.6336H1.40006C0.936659 7.6336 0.560059 7.2584 0.560059 6.7936V2.84C0.560059 2.3766 0.936659 2 1.40006 2C1.86346 2 2.24006 2.3766 2.24006 2.84V4.6866L2.46406 4.4626C4.97146 1.9552 9.04966 1.9552 11.5571 4.4626C14.0645 6.97 14.0645 11.0482 11.5571 13.5556Z" fill="#c8c7d8"/>
</svg>
