<svg width="43" height="43" viewBox="0 0 43 43" fill="none" xmlns="http://www.w3.org/2000/svg">
<path d="M6.24621 12.2692C9.69592 12.2692 12.4924 9.5227 12.4924 6.13461C12.4924 2.74656 9.69592 0 6.24621 0C2.79652 0 0 2.74656 0 6.13461C0 9.5227 2.79652 12.2692 6.24621 12.2692Z" fill="currentColor"/>
<path d="M21.237 12.2692C24.6867 12.2692 27.4832 9.5227 27.4832 6.13461C27.4832 2.74656 24.6867 0 21.237 0C17.7872 0 14.9908 2.74656 14.9908 6.13461C14.9908 9.5227 17.7872 12.2692 21.237 12.2692Z" fill="currentColor"/>
<path d="M36.2279 12.2692C39.6776 12.2692 42.4741 9.5227 42.4741 6.13461C42.4741 2.74656 39.6776 0 36.2279 0C32.7782 0 29.9817 2.74656 29.9817 6.13461C29.9817 9.5227 32.7782 12.2692 36.2279 12.2692Z" fill="currentColor"/>
<path d="M6.24621 26.9925C9.69592 26.9925 12.4924 24.2459 12.4924 20.8578C12.4924 17.4698 9.69592 14.7233 6.24621 14.7233C2.79652 14.7233 0 17.4698 0 20.8578C0 24.2459 2.79652 26.9925 6.24621 26.9925Z" fill="currentColor"/>
<path d="M36.2279 26.9925C39.6776 26.9925 42.4741 24.2459 42.4741 20.8578C42.4741 17.4698 39.6776 14.7233 36.2279 14.7233C32.7782 14.7233 29.9817 17.4698 29.9817 20.8578C29.9817 24.2459 32.7782 26.9925 36.2279 26.9925Z" fill="currentColor"/>
<path d="M6.24621 41.7158C9.69592 41.7158 12.4924 38.9692 12.4924 35.5811C12.4924 32.1931 9.69592 29.4465 6.24621 29.4465C2.79652 29.4465 0 32.1931 0 35.5811C0 38.9692 2.79652 41.7158 6.24621 41.7158Z" fill="currentColor"/>
<path d="M21.237 41.7158C24.6867 41.7158 27.4832 38.9692 27.4832 35.5811C27.4832 32.1931 24.6867 29.4465 21.237 29.4465C17.7872 29.4465 14.9908 32.1931 14.9908 35.5811C14.9908 38.9692 17.7872 41.7158 21.237 41.7158Z" fill="currentColor"/>
<path d="M21.2369 14.4203L14.6825 20.8576L21.2369 27.2948L27.7913 20.8576L21.2369 14.4203Z" fill="currentColor"/>
<path d="M36.2277 29.1435L29.6733 35.5808L36.2277 42.0181L42.7821 35.5808L36.2277 29.1435Z" fill="currentColor"/>
</svg>
