<svg width="36" height="36" viewBox="0 0 36 36" fill="none" xmlns="http://www.w3.org/2000/svg">
<path d="M27.0609 18.9673C27.0763 17.8234 27.3861 16.701 27.9627 15.7051C28.5436 14.7048 29.3684 13.8679 30.36 13.2724C29.724 12.384 28.8901 11.6556 27.9242 11.1449C26.9507 10.6302 25.8722 10.3454 24.7715 10.3124C22.4204 10.0719 20.1419 11.6922 18.944 11.6922C17.7214 11.6922 15.8761 10.337 13.8904 10.3771C12.608 10.4173 11.3569 10.7834 10.2551 11.4409C9.16231 12.0914 8.2567 13.014 7.6266 14.1187C4.91944 18.7114 6.93902 25.4608 9.53365 29.1731C10.8317 30.9907 12.3472 33.0211 14.3329 32.9502C16.2754 32.87 16.9999 31.7354 19.3433 31.7354C21.6666 31.7354 22.348 32.9487 24.3722 32.904C26.4565 32.87 27.77 31.0771 29.0219 29.2425C29.9529 27.9514 30.6712 26.5196 31.1494 25.0014C29.9438 24.5046 28.9104 23.6652 28.177 22.5871C27.4518 21.519 27.0631 20.2583 27.0609 18.9673ZM23.236 7.87191C24.3691 6.54507 24.9301 4.82319 24.7961 3.0835C23.0683 3.25827 21.4674 4.06999 20.3053 5.36054C19.7426 5.988 19.3109 6.7172 19.0365 7.50962C18.7618 8.29919 18.6485 9.13593 18.7035 9.97012C19.5708 9.97911 20.4292 9.79478 21.2164 9.43054C22.0011 9.06825 22.6918 8.53483 23.236 7.87191Z" fill="#C8C7D8"/>
</svg>
