<svg width="36" height="36" viewBox="0 0 36 36" fill="none" xmlns="http://www.w3.org/2000/svg">
<path d="M31.704 17.959C31.704 16.8363 31.6134 16.0163 31.416 15.167H18.624V20.2337H26.1334C25.9814 21.4937 25.164 23.391 23.3467 24.6643L23.3227 24.835L27.3667 27.975L27.6467 28.003C30.22 25.6203 31.704 22.1163 31.704 17.959V17.959Z" fill="#4285F4"/>
<path d="M18.624 31.3108C22.3027 31.3108 25.3907 30.0974 27.6467 28.0041L23.3467 24.6654C22.196 25.4694 20.6534 26.0308 18.624 26.0308C15.0214 26.0308 11.9627 23.6494 10.8734 20.3574L10.7134 20.3708L6.50803 23.6321L6.45203 23.7854C8.69203 28.2468 13.2947 31.3121 18.624 31.3121V31.3108Z" fill="#34A853"/>
<path d="M10.8733 20.355C10.576 19.4857 10.4228 18.5737 10.42 17.655C10.42 16.7137 10.5853 15.8043 10.8587 14.9537L10.8507 14.7737L6.592 11.459L6.45333 11.5257C5.49914 13.4281 5.00153 15.5267 5 17.655C5 19.855 5.52933 21.9336 6.45333 23.7843L10.8733 20.355V20.355Z" fill="#FBBC05"/>
<path d="M18.624 9.28C21.1827 9.28 22.908 10.3867 23.892 11.3133L27.7374 7.55067C25.376 5.35067 22.3027 4 18.624 4C13.2947 4 8.69336 7.06533 6.45203 11.5253L10.8574 14.9547C11.964 11.6613 15.0214 9.28 18.624 9.28V9.28Z" fill="#EB4335"/>
</svg>
