<svg width="36" height="36" viewBox="0 0 36 36" fill="none" xmlns="http://www.w3.org/2000/svg">
  <circle cx="18" cy="18" r="18" fill="#366EDD"/>
  <path d="M18 30C11.3719 30 6 24.6281 6 18C6 11.3719 11.3719 6 18 6C24.6281 6 30 11.3719 30 18C30 21.1826 28.7357 24.2348 26.4853 26.4853C24.2348 28.7357 21.1826 30 18 30ZM17.2851 13.5472C16.6285 13.5798 16.0078 13.8566 15.5449 14.3233C15.082 14.7901 14.8102 15.413 14.783 16.0698C14.783 17.3055 15.5387 18.1123 17.1421 18.4494L18.2655 18.7149C19.3583 18.9702 19.8077 19.3379 19.8077 19.9609C19.8077 20.5838 19.0213 21.1966 18 21.1966C17.6372 21.2299 17.2724 21.1603 16.9474 20.996C16.6223 20.8316 16.35 20.5791 16.1617 20.2672C16.1059 20.1489 16.0178 20.0487 15.9076 19.9783C15.7974 19.9078 15.6695 19.8699 15.5387 19.8689H14.9362C14.8898 19.8775 14.8457 19.8952 14.8062 19.9209C14.7667 19.9466 14.7327 19.9799 14.7061 20.0188C14.6795 20.0577 14.6609 20.1015 14.6513 20.1477C14.6417 20.1938 14.6413 20.2414 14.6502 20.2877C14.797 20.8867 15.1382 21.4202 15.6206 21.8045C16.1029 22.1889 16.6991 22.4025 17.3157 22.4119V23.2698C17.3157 23.4607 17.3916 23.6439 17.5266 23.7789C17.6617 23.9139 17.8448 23.9898 18.0357 23.9898C18.2267 23.9898 18.4098 23.9139 18.5449 23.7789C18.6799 23.6439 18.7557 23.4607 18.7557 23.2698V22.4017C19.4531 22.3938 20.1197 22.114 20.6138 21.6218C21.1079 21.1297 21.3903 20.4641 21.4009 19.7668C21.4009 18.4698 20.6553 17.7243 18.8885 17.3464L17.8672 17.1217C16.846 16.8664 16.366 16.5294 16.366 15.9574C16.366 15.3855 16.9787 14.7523 18 14.7523C18.3216 14.7187 18.6461 14.779 18.9343 14.9258C19.2224 15.0726 19.4619 15.2996 19.6238 15.5796C19.6895 15.7194 19.7934 15.8377 19.9235 15.9209C20.0537 16.004 20.2047 16.0486 20.3591 16.0494H20.8392C20.9483 16.0227 21.0426 15.9542 21.1018 15.8587C21.161 15.7632 21.1804 15.6483 21.1557 15.5387C21.0174 14.9856 20.7079 14.4904 20.2714 14.1236C19.8349 13.7568 19.2938 13.5372 18.7251 13.4962V12.7915C18.7251 12.6005 18.6493 12.4174 18.5142 12.2824C18.3792 12.1473 18.1961 12.0715 18.0051 12.0715C17.8142 12.0715 17.631 12.1473 17.496 12.2824C17.361 12.4174 17.2851 12.6005 17.2851 12.7915V13.5472ZM9.00255 18C9.00372 19.8813 9.59589 21.7146 10.6954 23.2411C11.7949 24.7676 13.3462 25.9101 15.1302 26.5072H15.2732C15.3951 26.5072 15.512 26.4588 15.5982 26.3726C15.6843 26.2864 15.7328 26.1695 15.7328 26.0477V25.8332C15.7331 25.6431 15.677 25.4572 15.5715 25.299C15.4661 25.1408 15.316 25.0175 15.1404 24.9447C13.7511 24.3839 12.561 23.4207 11.723 22.1787C10.885 20.9368 10.4373 19.4727 10.4373 17.9745C10.4373 16.4762 10.885 15.0122 11.723 13.7702C12.561 12.5282 13.7511 11.565 15.1404 11.0043C15.3152 10.9332 15.4649 10.8118 15.5704 10.6554C15.6759 10.4989 15.7324 10.3146 15.7328 10.126V9.89106C15.7334 9.8221 15.7174 9.75399 15.6862 9.69251C15.6549 9.63103 15.6093 9.578 15.5532 9.53791C15.497 9.49782 15.4321 9.47186 15.3638 9.46222C15.2955 9.45259 15.2259 9.45956 15.1609 9.48255C13.3695 10.075 11.8103 11.2168 10.7048 12.7458C9.59935 14.2748 9.00372 16.1132 9.00255 18ZM26.9974 18C26.9941 16.1205 26.401 14.2894 25.3016 12.765C24.2022 11.2405 22.6521 10.0995 20.8698 9.50298H20.7166C20.5893 9.50298 20.4672 9.55355 20.3772 9.64357C20.2872 9.73359 20.2366 9.85568 20.2366 9.98298V10.1362C20.2407 10.3331 20.3017 10.5247 20.4123 10.6878C20.5228 10.8509 20.6781 10.9785 20.8596 11.0553C22.2457 11.6177 23.4326 12.581 24.2682 13.8218C25.1038 15.0626 25.5501 16.5245 25.5501 18.0204C25.5501 19.5164 25.1038 20.9783 24.2682 22.2191C23.4326 23.4599 22.2457 24.4231 20.8596 24.9855C20.6816 25.0631 20.5294 25.1898 20.4209 25.3508C20.3124 25.5118 20.252 25.7004 20.2468 25.8945V26.0681C20.2477 26.1438 20.2665 26.2182 20.3016 26.2853C20.3367 26.3524 20.3872 26.4102 20.449 26.454C20.5107 26.4978 20.582 26.5264 20.6569 26.5374C20.7318 26.5485 20.8082 26.5416 20.88 26.5174C22.6637 25.918 24.214 24.7732 25.3117 23.2448C26.4095 21.7165 26.9991 19.8818 26.9974 18Z" fill="white"/>
</svg>
